:SAMPLES-PER-SECOND 30
:FULLY-SPECIFIED
:DEGREES
81
root  -28.1608 39.1442 14.8183 -19.7528 -70.5692 14.5703
RightUpLeg  -13.4213 -6.46409 -13.6781
RightLeg  62.5156 -1.73904 -4.2475
RightFoot  5.1119 -0.622523 4.57216
RightToes  0.00048216 0.542163 -0.142577
Spine  26.3506 -0.0374785 2.94144
Spine1  15.9692 1.83798 -3.10316
HEad  5.57386 -5.58583 0.0088703
LeftShoulder1  9.08982 -14.5927 -43.7128
LeftArm  -10.988 11.7908 -30.2113
LeftForeArm  26.4714 -10.5369 -5.19801
LeftHand  -0.25398 0.0180481 5.50724
RightShoulder  5.26192 9.90812 33.2894
RightArm  -10.3516 23.8537 41.4231
RightForeArm  11.3142 6.25649 6.28192
RightHand  -1.03188 1.61608 -17.2042
LeftUpLeg  -16.8702 28.0141 -10.6663
LeftLeg  21.1049 -0.0894667 0.298522
LeftFoot  -1.20978 -0.775127 8.80211
LeftToes  1.06244e-005 4.65856e-005 -8.18505e-006
82
root  -28.8796 39.3968 15.3016 -17.7953 -70.0999 13.2944
RightUpLeg  -17.8391 -7.5155 -12.4002
RightLeg  60.6347 -1.09294 -2.61866
RightFoot  3.65359 -0.877029 6.83873
RightToes  0.00048216 0.542163 -0.142577
Spine  27.913 -0.626237 3.41879
Spine1  16.2955 1.23844 -2.75825
HEad  4.27851 -5.98026 -0.352895
LeftShoulder1  9.12978 -14.8835 -43.1813
LeftArm  -10.0328 8.02932 -30.6242
LeftForeArm  25.7573 -14.5616 -4.6908
LeftHand  -0.25398 0.0180481 5.50724
RightShoulder  5.18818 9.90277 32.7567
RightArm  -11.5029 24.482 40.8204
RightForeArm  10.2895 4.32833 5.89648
RightHand  -1.09834 1.83279 -17.7411
LeftUpLeg  -15.5833 28.0394 -10.4236
LeftLeg  20.1845 -0.670908 0.061812
LeftFoot  -2.42131 -0.620891 8.12846
LeftToes  1.06244e-005 4.65856e-005 -8.18505e-006
83
root  -29.5915 39.6195 15.7229 -15.892 -69.8194 12.2328
RightUpLeg  -21.5095 -8.48769 -10.649
RightLeg  55.5227 -1.95372 -3.44597
RightFoot  2.61156 -0.848452 7.05339
RightToes  0.00048216 0.542163 -0.142577
Spine  29.474 -1.04363 3.6059
Spine1  16.1316 0.719909 -2.32364
HEad  3.32834 -6.10797 -0.371573
LeftShoulder1  9.08114 -15.15 -42.2808
LeftArm  -9.15915 4.56129 -30.9881
LeftForeArm  25.0523 -19.3566 -3.89219
LeftHand  -0.25398 0.0180481 5.50724
RightShoulder  5.12681 9.8945 32.3226
RightArm  -12.3162 24.2946 40.1713
RightForeArm  9.04953 4.05504 5.76102
RightHand  -1.28293 2.62129 -18.7133
LeftUpLeg  -14.4829 28.1224 -10.0686
LeftLeg  19.1818 -1.03983 -0.267198
LeftFoot  -3.27446 -0.508517 7.4874
LeftToes  1.06244e-005 4.65856e-005 -8.18505e-006
84
root  -30.3078 39.7785 16.1035 -14.5845 -69.5732 11.7161
RightUpLeg  -23.6721 -9.25784 -8.85626
RightLeg  47.0781 -3.6979 -4.5633
RightFoot  1.59293 -0.629725 5.64926
RightToes  0.00048216 0.542163 -0.142577
Spine  31.0281 -1.38281 3.21206
Spine1  15.805 0.0245892 -1.58129
HEad  2.64131 -5.40905 -0.476386
LeftShoulder1  8.97196 -15.2841 -41.4136
LeftArm  -10.9602 1.73309 -30.6767
LeftForeArm  26.4155 -25.1911 -3.90664
LeftHand  -0.25398 0.0180481 5.50724
RightShoulder  5.11623 9.91883 32.1737
RightArm  -12.5438 23.9554 39.4307
RightForeArm  8.09565 5.04158 5.87487
RightHand  -1.39448 3.10004 -19.2011
LeftUpLeg  -13.4097 26.8472 -9.58674
LeftLeg  18.4619 -0.023459 -0.495963
LeftFoot  -3.76624 -0.480655 7.60207
LeftToes  1.06244e-005 4.65856e-005 -8.18505e-006
85
root  -31.068 39.8603 16.4636 -13.8478 -69.3569 11.8844
RightUpLeg  -24.4645 -10.7595 -7.12661
RightLeg  35.4948 -5.01232 -4.1924
RightFoot  0.845747 -0.578418 5.47289
RightToes  0.00048216 0.542163 -0.142577
Spine  32.2089 -1.73581 2.51023
Spine1  15.8075 -0.743548 -0.948753
HEad  1.75479 -4.2196 -0.799692
LeftShoulder1  8.89248 -15.3388 -40.8878
LeftArm  -15.2063 -0.608002 -29.3487
LeftForeArm  29.9782 -32.0951 -5.37434
LeftHand  -0.25398 0.0180481 5.50724
RightShoulder  5.14493 9.91156 32.4089
RightArm  -12.1454 23.9684 38.4862
RightForeArm  7.301 6.75497 6.22571
RightHand  -1.3898 3.0788 -19.1817
LeftUpLeg  -12.8008 25.6198 -9.51117
LeftLeg  18.4227 0.970995 -0.450156
LeftFoot  -4.89859 -0.4081 7.75
LeftToes  1.06244e-005 4.65856e-005 -8.18505e-006
86
root  -31.8973 39.8797 16.8117 -13.4906 -69.2426 12.7886
RightUpLeg  -24.6849 -14.145 -5.10752
RightLeg  22.2062 -5.08403 -2.22235
RightFoot  1.01889 -0.707519 6.58222
RightToes  0.00048216 0.542163 -0.142577
Spine  32.8556 -2.06526 1.86325
Spine1  16.0877 -1.33453 -0.721492
HEad  0.596717 -3.30831 -1.01423
LeftShoulder1  8.83539 -15.4449 -40.3547
LeftArm  -18.8456 -2.74183 -27.7108
LeftForeArm  32.2183 -39.1366 -7.09084
LeftHand  -0.25398 0.0180481 5.50724
RightShoulder  5.16509 9.89954 32.5936
RightArm  -11.3291 23.9375 37.7427
RightForeArm  6.51827 8.86773 6.57655
RightHand  -1.41683 3.18222 -19.3159
LeftUpLeg  -12.834 25.2921 -9.9585
LeftLeg  18.9718 1.13809 -0.202708
LeftFoot  -6.76446 -0.236953 6.89831
LeftToes  1.06244e-005 4.65856e-005 -8.18505e-006
87
root  -32.7697 39.8076 17.1236 -14.1165 -68.9645 14.5939
RightUpLeg  -23.9775 -15.2656 -4.88411
RightLeg  9.96082 -8.0164 1.39018
RightFoot  2.01752 -0.861786 7.45778
RightToes  0.00048216 0.542163 -0.142577
Spine  33.6352 -2.24604 1.02686
Spine1  16.2315 -1.85998 -0.439224
HEad  -0.600885 -2.99613 -1.19022
LeftShoulder1  8.64518 -15.5434 -39.1759
LeftArm  -21.7732 -4.92202 -26.8328
LeftForeArm  32.171 -44.4016 -8.73075
LeftHand  -0.25398 0.0180481 5.50724
RightShoulder  5.12853 10.0184 31.9849
RightArm  -10.1304 23.3109 37.8175
RightForeArm  5.52272 11.0631 6.6093
RightHand  -1.56012 3.75981 -19.9257
LeftUpLeg  -13.0871 25.1203 -10.8375
LeftLeg  20.1975 0.918964 0.346266
LeftFoot  -8.73819 -0.0797232 5.87979
LeftToes  1.06244e-005 4.65856e-005 -8.18505e-006
88
root  -33.6193 39.6304 17.3902 -15.8865 -68.2444 16.7381
RightUpLeg  -22.2713 -10.4386 -7.9869
RightLeg  2.20871 -16.5018 5.30762
RightFoot  3.80046 -0.887729 6.87601
RightToes  0.00048216 0.542163 -0.142577
Spine  35.3035 -2.32058 0.268746
Spine1  16.3136 -2.50161 0.298587
HEad  -1.94141 -3.36005 -1.47197
LeftShoulder1  8.25907 -15.5328 -37.2522
LeftArm  -23.7886 -7.65659 -27.0813
LeftForeArm  29.7593 -46.6372 -9.70857
LeftHand  -0.25398 0.0180481 5.50724
RightShoulder  5.02628 10.2111 30.6931
RightArm  -8.97733 22.4904 38.2309
RightForeArm  4.44584 12.7426 6.46873
RightHand  -1.71894 4.34415 -20.6367
LeftUpLeg  -12.6762 23.6316 -11.579
LeftLeg  22.03 1.81281 1.18804
LeftFoot  -10.6993 0.0329988 5.9876
LeftToes  1.06244e-005 4.65856e-005 -8.18505e-006
89
root  -34.3889 39.3761 17.6362 -17.7668 -67.3205 18.3877
RightUpLeg  -22.7619 -11.2702 -8.22653
RightLeg  2.75917 -17.6564 5.22441
RightFoot  6.26416 -0.503693 3.58776
RightToes  0.00048216 0.542163 -0.142577
Spine  37.5214 -2.52749 0.644954
Spine1  16.8132 -2.92998 0.793403
HEad  -3.83248 -4.61494 -1.44715
LeftShoulder1  7.88771 -15.6127 -35.1868
LeftArm  -24.9938 -11.5186 -27.6838
LeftForeArm  26.8647 -46.2105 -9.76664
LeftHand  -0.25398 0.0180481 5.50724
RightShoulder  4.91664 10.2299 29.8319
RightArm  -7.99104 22.4351 37.4996
RightForeArm  3.17311 13.5375 6.49065
RightHand  -1.76695 4.4572 -20.9593
LeftUpLeg  -12.2172 21.6587 -11.9742
LeftLeg  24.9711 3.58428 2.16188
LeftFoot  -12.7663 0.145405 5.92853
LeftToes  1.06244e-005 4.65856e-005 -8.18505e-006
90
root  -35.0946 39.0726 17.8853 -18.4774 -66.7757 19.2493
RightUpLeg  -25.4652 -13.0683 -7.73708
RightLeg  8.67031 -16.8589 3.45012
RightFoot  8.95451 0.474729 -2.28901
RightToes  0.00048216 0.542163 -0.142577
Spine  39.529 -3.03643 2.53041
Spine1  17.4749 -2.64472 0.158212
HEad  -6.30479 -6.55112 -0.820971
LeftShoulder1  7.76076 -16.0622 -33.6065
LeftArm  -25.6992 -16.3656 -27.7524
LeftForeArm  25.7469 -44.456 -9.20557
LeftHand  -0.25398 0.0180481 5.50724
RightShoulder  4.89303 10.117 29.9569
RightArm  -7.26981 23.4264 35.005
RightForeArm  1.84061 13.4982 6.76258
RightHand  -1.70757 4.2045 -20.7855
LeftUpLeg  -14.1556 21.161 -12.2621
LeftLeg  30.9739 4.72379 3.40888
LeftFoot  -13.7553 0.161777 3.49766
LeftToes  1.06244e-005 4.65856e-005 -8.18505e-006
91
root  -35.7606 38.7754 18.1256 -16.9697 -67.1688 18.5859
RightUpLeg  -29.9067 -19.0859 -3.68097
RightLeg  14.9745 -10.2836 1.71195
RightFoot  10.2259 1.52736 -7.68635
RightToes  0.00048216 0.542163 -0.142577
Spine  41.6688 -3.69522 5.28798
Spine1  17.3475 -1.75681 -1.11577
HEad  -8.90515 -8.14985 -0.268178
LeftShoulder1  7.82347 -16.7105 -32.6403
LeftArm  -26.1446 -21.2497 -27.1765
LeftForeArm  26.6643 -42.2771 -8.40313
LeftHand  -0.25398 0.0180481 5.50724
RightShoulder  4.99062 10.3383 30.0909
RightArm  -7.37054 25.168 31.9483
RightForeArm  1.47486 12.352 7.26458
RightHand  -1.60525 3.86741 -20.2612
LeftUpLeg  -19.6848 22.1507 -12.1331
LeftLeg  40.6639 5.56454 5.52367
LeftFoot  -10.7867 0.070617 0.327108
LeftToes  1.06244e-005 4.65856e-005 -8.18505e-006
